<svg width="155" height="140" viewBox="0 0 155 140" fill="none" xmlns="http://www.w3.org/2000/svg">
<path d="M20.5236 113.9V139.207H19.1695L4.00975 122.35V139.207H0.00878906V113.9H1.40693L16.5315 131.1V113.9H20.5324H20.5236Z" fill="white"/>
<path d="M53.0766 135.065H41.8739L40.0976 139.215H35.8329L46.807 113.908H48.1611L59.1352 139.215H54.8353L53.059 135.065H53.0766ZM47.4928 121.339L43.3072 131.636H51.6433L47.4928 121.339Z" fill="white"/>
<path d="M74.4269 113.9H78.4278V139.207H74.4269V113.9Z" fill="white"/>
<path d="M107.578 113.9C112.141 113.9 116.098 116.124 118.253 119.633L115.237 121.858C113.46 119.105 110.901 117.558 107.622 117.558C102.53 117.558 98.6436 121.479 98.6436 126.764C98.6436 132.049 102.53 135.971 107.622 135.971C110.901 135.971 113.469 134.423 115.237 131.671L118.253 133.896C116.142 137.404 112.22 139.629 107.578 139.629C100.49 139.743 94.3348 133.896 94.4931 126.764C94.3436 119.633 100.49 113.785 107.578 113.9Z" fill="white"/>
<path d="M148.924 135.065H137.721L135.945 139.215H131.68L142.654 113.908H144.008L154.982 139.215H150.683L148.906 135.065H148.924ZM143.34 121.339L139.155 131.636H147.491L143.34 121.339Z" fill="white"/>
<path d="M4.00096 63.2856H0V101.255H4.00096V63.2856Z" fill="url(#paint0_linear_1_162)"/>
<path d="M20.5237 50.623H16.5227V101.255H20.5237V50.623Z" fill="url(#paint1_linear_1_162)"/>
<path d="M39.6931 37.978H35.6921V101.255H39.6931V37.978Z" fill="url(#paint2_linear_1_162)"/>
<path d="M58.8713 25.3164H54.8704V101.256H58.8713V25.3164Z" fill="url(#paint3_linear_1_162)"/>
<path d="M78.3485 50.623H74.3475V101.255H78.3485V50.623Z" fill="url(#paint4_linear_1_162)"/>
<path d="M97.8347 37.978H93.8337V101.255H97.8347V37.978Z" fill="url(#paint5_linear_1_162)"/>
<path d="M117.321 25.3164H113.32V101.256H117.321V25.3164Z" fill="url(#paint6_linear_1_162)"/>
<path d="M136.798 12.6621H132.797V101.255H136.798V12.6621Z" fill="url(#paint7_linear_1_162)"/>
<path d="M155 0H150.999V101.255H155V0Z" fill="url(#paint8_linear_1_162)"/>
<defs>
<linearGradient id="paint0_linear_1_162" x1="2.00488" y1="101.255" x2="2.00488" y2="63.2856" gradientUnits="userSpaceOnUse">
<stop stop-opacity="0"/>
<stop offset="0.7" stop-color="#8651FB"/>
<stop offset="1" stop-color="#8651FB"/>
</linearGradient>
<linearGradient id="paint1_linear_1_162" x1="18.5188" y1="101.255" x2="18.5188" y2="50.623" gradientUnits="userSpaceOnUse">
<stop stop-opacity="0"/>
<stop offset="0.75" stop-color="#4E51FB"/>
<stop offset="1" stop-color="#4E51FB"/>
</linearGradient>
<linearGradient id="paint2_linear_1_162" x1="37.697" y1="101.255" x2="37.697" y2="37.978" gradientUnits="userSpaceOnUse">
<stop stop-opacity="0"/>
<stop offset="0.6" stop-color="#97D1C2"/>
<stop offset="1" stop-color="#97D1C2"/>
</linearGradient>
<linearGradient id="paint3_linear_1_162" x1="56.8664" y1="101.256" x2="56.8664" y2="25.3164" gradientUnits="userSpaceOnUse">
<stop stop-opacity="0"/>
<stop offset="0.07" stop-color="#080808" stop-opacity="0.04"/>
<stop offset="0.18" stop-color="#212121" stop-opacity="0.13"/>
<stop offset="0.32" stop-color="#494949" stop-opacity="0.29"/>
<stop offset="0.48" stop-color="#808080" stop-opacity="0.5"/>
<stop offset="0.66" stop-color="#C5C5C5" stop-opacity="0.78"/>
<stop offset="0.8" stop-color="white"/>
<stop offset="1" stop-color="white"/>
</linearGradient>
<linearGradient id="paint4_linear_1_162" x1="76.3524" y1="101.255" x2="76.3524" y2="50.623" gradientUnits="userSpaceOnUse">
<stop stop-opacity="0"/>
<stop offset="0.06" stop-color="#020208" stop-opacity="0.04"/>
<stop offset="0.16" stop-color="#0A0A21" stop-opacity="0.13"/>
<stop offset="0.28" stop-color="#161749" stop-opacity="0.29"/>
<stop offset="0.43" stop-color="#272980" stop-opacity="0.51"/>
<stop offset="0.59" stop-color="#3D3FC5" stop-opacity="0.79"/>
<stop offset="0.7" stop-color="#4E51FB"/>
<stop offset="1" stop-color="#4E51FB"/>
</linearGradient>
<linearGradient id="paint5_linear_1_162" x1="95.8298" y1="101.255" x2="95.8298" y2="37.978" gradientUnits="userSpaceOnUse">
<stop stop-opacity="0"/>
<stop offset="0.03" stop-color="#080B0A" stop-opacity="0.05"/>
<stop offset="0.24" stop-color="#3A504A" stop-opacity="0.39"/>
<stop offset="0.43" stop-color="#62877E" stop-opacity="0.65"/>
<stop offset="0.59" stop-color="#7EAFA3" stop-opacity="0.84"/>
<stop offset="0.72" stop-color="#90C8B9" stop-opacity="0.96"/>
<stop offset="0.8" stop-color="#97D1C2"/>
<stop offset="1" stop-color="#97D1C2"/>
</linearGradient>
<linearGradient id="paint6_linear_1_162" x1="115.316" y1="101.256" x2="115.316" y2="25.3164" gradientUnits="userSpaceOnUse">
<stop stop-opacity="0"/>
<stop offset="0.8" stop-color="#8651FB"/>
<stop offset="1" stop-color="#8651FB"/>
</linearGradient>
<linearGradient id="paint7_linear_1_162" x1="134.802" y1="101.255" x2="134.802" y2="12.6621" gradientUnits="userSpaceOnUse">
<stop stop-opacity="0"/>
<stop offset="0.07" stop-color="#080808" stop-opacity="0.04"/>
<stop offset="0.18" stop-color="#212121" stop-opacity="0.13"/>
<stop offset="0.32" stop-color="#494949" stop-opacity="0.29"/>
<stop offset="0.48" stop-color="#808080" stop-opacity="0.5"/>
<stop offset="0.66" stop-color="#C5C5C5" stop-opacity="0.78"/>
<stop offset="0.8" stop-color="white"/>
<stop offset="1" stop-color="white"/>
</linearGradient>
<linearGradient id="paint8_linear_1_162" x1="152.995" y1="101.255" x2="152.995" y2="0" gradientUnits="userSpaceOnUse">
<stop stop-opacity="0"/>
<stop offset="0.07" stop-color="#0E0F2F" stop-opacity="0.19"/>
<stop offset="0.16" stop-color="#1F2065" stop-opacity="0.4"/>
<stop offset="0.26" stop-color="#2D2F92" stop-opacity="0.59"/>
<stop offset="0.35" stop-color="#393BB8" stop-opacity="0.74"/>
<stop offset="0.44" stop-color="#4244D5" stop-opacity="0.85"/>
<stop offset="0.53" stop-color="#484BEA" stop-opacity="0.93"/>
<stop offset="0.61" stop-color="#4C4FF6" stop-opacity="0.98"/>
<stop offset="0.7" stop-color="#4E51FB"/>
<stop offset="1" stop-color="#4E51FB"/>
</linearGradient>
</defs>
</svg>
