<svg width="26" height="26" viewBox="0 0 26 26" fill="none" xmlns="http://www.w3.org/2000/svg">
<path d="M23.2563 0H3.11264C1.83196 0 0.790039 1.05125 0.790039 2.34341V22.6566C0.790039 23.9488 1.83196 25 3.11264 25H13.9659V14.8489H11.2526V10.9396H13.9659V8.99036C14.031 6.80026 14.5954 4.85107 18.2746 4.69777H21.3244V8.57424H18.7413C18.4049 8.55234 18.0793 8.6728 17.8405 8.90276C17.6017 9.13272 17.4606 9.45028 17.4498 9.78975V10.9615H21.3244L20.6624 14.8708H17.4498V25.0329H23.2563C24.537 25.0329 25.5789 23.9816 25.5789 22.6894V2.34341C25.5789 1.05125 24.5478 0 23.2563 0Z" fill="white"/>
</svg>
