<svg width="26" height="26" viewBox="0 0 26 26" fill="none" xmlns="http://www.w3.org/2000/svg">
<path fill-rule="evenodd" clip-rule="evenodd" d="M12.4162 6.07764C8.89971 6.07764 6.05615 8.94667 6.05615 12.4946C6.05615 16.0426 8.91056 18.9116 12.4162 18.9116C15.9218 18.9116 18.7762 16.0426 18.7762 12.4946C18.7762 8.94667 15.9218 6.07764 12.4162 6.07764ZM12.4162 16.6668C10.137 16.6668 8.28107 14.8052 8.28107 12.4946C8.28107 10.1841 10.1261 8.32249 12.4162 8.32249C14.7062 8.32249 16.5513 10.1841 16.5513 12.4946C16.5513 14.8052 14.7062 16.6668 12.4162 16.6668Z" fill="white"/>
<path d="M18.0924 2.58432C20.5669 2.58432 22.5856 4.62111 22.5856 7.11783V17.8931C22.5856 20.3898 20.5669 22.4266 18.0924 22.4266H7.05462C4.58008 22.4266 2.56137 20.3898 2.56137 17.8931V7.11783C2.56137 4.62111 4.58008 2.58432 7.05462 2.58432H18.1032H18.0924ZM18.0924 0H7.05462C3.1583 0 0 3.1866 0 7.11783V17.8931C0 21.8244 3.1583 25.011 7.05462 25.011H18.1032C21.9996 25.011 25.1579 21.8244 25.1579 17.8931V7.11783C25.147 3.1866 21.9887 0 18.0924 0Z" fill="white"/>
<path fill-rule="evenodd" clip-rule="evenodd" d="M20.5126 5.8259C20.5126 6.65814 19.8506 7.32612 19.0257 7.32612C18.2009 7.32612 17.5388 6.65814 17.5388 5.8259C17.5388 4.99366 18.2009 4.32568 19.0257 4.32568C19.8506 4.32568 20.5126 4.99366 20.5126 5.8259Z" fill="white"/>
</svg>
