<svg width="25" height="25" viewBox="0 0 25 25" fill="none" xmlns="http://www.w3.org/2000/svg">
<g clip-path="url(#clip0_1_188)">
<path d="M25 25H19.8636V16.25C19.8636 13.8409 18.9545 12.5 17.0455 12.5C14.9773 12.5 13.9091 13.8864 13.9091 16.25V25H8.95455V8.34091H13.9091V10.5909C13.9091 10.5909 15.4091 7.84091 18.9318 7.84091C22.4545 7.84091 25 10 25 14.4545V25ZM3.04545 6.15909C1.36364 6.15909 0 4.77273 0 3.09091C0 1.40909 1.36364 0 3.04545 0C4.72727 0 6.09091 1.38636 6.09091 3.06818C6.09091 4.77273 4.72727 6.13636 3.04545 6.13636V6.15909ZM5.65909 25H0.5V8.34091H5.65909V25Z" fill="white"/>
</g>
<defs>
<clipPath id="clip0_1_188">
<rect width="25" height="25" fill="white"/>
</clipPath>
</defs>
</svg>
