<svg width="31" height="25" viewBox="0 0 31 25" fill="none" xmlns="http://www.w3.org/2000/svg">
<path d="M31.0001 2.97854C29.9039 3.50416 28.7318 3.84363 27.5162 3.98598C28.7426 3.15375 29.6651 1.93824 30.1427 0.525624C29.2419 1.106 27.234 1.91634 26.2355 1.91634C25.0199 0.700832 23.3702 0.0109505 21.6554 0C19.984 0 18.3886 0.667981 17.2056 1.86159C16.0226 3.05519 15.3605 4.66492 15.3605 6.35129C15.3605 6.82216 15.404 7.28209 15.5016 7.74201C10.7805 7.59965 5.2453 5.24529 2.15212 1.1498C0.53498 4.01884 1.37068 7.6544 4.06229 9.51599C3.34598 9.61454 1.96761 9.47219 1.34898 8.83706C1.30556 11.0491 2.34747 13.9838 6.21123 15.035C5.45151 15.4183 4.15997 15.3198 3.58475 15.2212C3.7801 17.0937 6.39574 19.5467 9.20674 19.5467C8.20824 20.6965 4.76775 22.8647 0.480713 22.1857C3.45451 24.0145 6.87329 24.9781 10.3463 24.9781C15.1652 25.011 19.7887 23.0399 23.1315 19.5247C26.4634 16.0096 28.2216 11.2681 27.9937 6.417V6.17608C29.1984 5.32195 30.2187 4.22689 31.0001 2.95664" fill="white"/>
</svg>
